<svg width="75" height="16" viewBox="0 0 75 16" fill="none" xmlns="http://www.w3.org/2000/svg">
<path fill-rule="evenodd" clip-rule="evenodd" d="M10.4821 7.22886C10.4821 7.08507 10.4249 6.94717 10.3233 6.8455C10.2216 6.74382 10.0837 6.6867 9.9399 6.6867H2.00782L3.42537 5.47228C3.47948 5.42595 3.52394 5.36942 3.5562 5.30592C3.58846 5.24241 3.6079 5.17317 3.6134 5.10215C3.61891 5.03113 3.61037 4.95973 3.58828 4.89201C3.56619 4.82429 3.53097 4.76159 3.48465 4.70748C3.43832 4.65337 3.38179 4.60891 3.31829 4.57665C3.25478 4.54439 3.18554 4.52495 3.11452 4.51944C3.04351 4.51394 2.9721 4.52248 2.90438 4.54457C2.83666 4.56666 2.77396 4.60188 2.71985 4.6482L0.189796 6.81682C0.130278 6.86772 0.0824937 6.9309 0.0497296 7.00203C0.0169656 7.07316 0 7.15054 0 7.22886C0 7.30717 0.0169656 7.38455 0.0497296 7.45568C0.0824937 7.52681 0.130278 7.59 0.189796 7.64089L2.71985 9.80951C2.82913 9.90307 2.9711 9.94939 3.11452 9.93827C3.25795 9.92715 3.39109 9.85952 3.48465 9.75024C3.57821 9.64096 3.62452 9.49899 3.6134 9.35556C3.60229 9.21213 3.53465 9.079 3.42537 8.98544L2.00854 7.77101H9.9399C10.0837 7.77101 10.2216 7.71389 10.3233 7.61222C10.4249 7.51054 10.4821 7.37264 10.4821 7.22886Z" fill="#9B51E0"/>
<path d="M5.60278 4.33723C5.60278 4.84469 5.60278 5.09842 5.72495 5.28131C5.77756 5.35994 5.8451 5.42748 5.92374 5.4801C6.10663 5.60226 6.36035 5.60226 6.86781 5.60226H9.94002C10.3714 5.60226 10.7851 5.77362 11.0901 6.07864C11.3951 6.38366 11.5665 6.79736 11.5665 7.22872C11.5665 7.66009 11.3951 8.07379 11.0901 8.37881C10.7851 8.68383 10.3714 8.85519 9.94002 8.85519H6.86781C6.36035 8.85519 6.10663 8.85519 5.92374 8.97663C5.84504 9.02946 5.77749 9.09725 5.72495 9.17614C5.60278 9.35903 5.60278 9.61276 5.60278 10.1202C5.60278 12.1645 5.60278 13.1874 6.23819 13.822C6.87287 14.4574 7.89501 14.4574 9.93929 14.4574H10.6622C12.7079 14.4574 13.7293 14.4574 14.3647 13.822C15.0001 13.1874 15.0001 12.1645 15.0001 10.1202V4.33723C15.0001 2.29295 15.0001 1.27009 14.3647 0.635405C13.7293 -4.30866e-08 12.7072 0 10.6629 0H9.94002C7.89501 0 6.87287 -4.30866e-08 6.23819 0.635405C5.60278 1.27009 5.60278 2.29295 5.60278 4.33723Z" fill="#9B51E0"/>
<path d="M29.246 12V2.06H30.226V11.132H35.966V12H29.246ZM40.156 12.14C39.6334 12.14 39.148 12.042 38.7 11.846C38.2614 11.6407 37.8787 11.3653 37.552 11.02C37.2347 10.6653 36.9874 10.264 36.81 9.816C36.6327 9.35867 36.544 8.878 36.544 8.374C36.544 7.85133 36.6327 7.366 36.81 6.918C36.9874 6.46067 37.2394 6.05933 37.566 5.714C37.8927 5.35933 38.2754 5.084 38.714 4.888C39.162 4.68267 39.6474 4.58 40.17 4.58C40.6927 4.58 41.1734 4.68267 41.612 4.888C42.0507 5.084 42.4334 5.35933 42.76 5.714C43.0867 6.05933 43.3387 6.46067 43.516 6.918C43.6934 7.366 43.782 7.85133 43.782 8.374C43.782 8.878 43.6934 9.35867 43.516 9.816C43.3387 10.264 43.0867 10.6653 42.76 11.02C42.4427 11.3653 42.06 11.6407 41.612 11.846C41.1734 12.042 40.688 12.14 40.156 12.14ZM37.51 8.388C37.51 8.92933 37.6267 9.424 37.86 9.872C38.1027 10.3107 38.4247 10.6607 38.826 10.922C39.2274 11.174 39.6707 11.3 40.156 11.3C40.6414 11.3 41.0847 11.1693 41.486 10.908C41.8874 10.6467 42.2094 10.292 42.452 9.844C42.6947 9.38667 42.816 8.892 42.816 8.36C42.816 7.81867 42.6947 7.324 42.452 6.876C42.2094 6.428 41.8874 6.07333 41.486 5.812C41.0847 5.55067 40.6414 5.42 40.156 5.42C39.6707 5.42 39.2274 5.55533 38.826 5.826C38.434 6.09667 38.1167 6.456 37.874 6.904C37.6314 7.34267 37.51 7.83733 37.51 8.388ZM48.3002 12.098C47.8056 12.098 47.3482 11.9953 46.9282 11.79C46.5082 11.5847 46.1442 11.3093 45.8362 10.964C45.5376 10.6093 45.3042 10.208 45.1362 9.76C44.9682 9.312 44.8842 8.85 44.8842 8.374C44.8842 7.86067 44.9636 7.38 45.1222 6.932C45.2902 6.47467 45.5236 6.06867 45.8222 5.714C46.1302 5.35933 46.4896 5.084 46.9002 4.888C47.3109 4.68267 47.7682 4.58 48.2722 4.58C48.8976 4.58 49.4389 4.73867 49.8962 5.056C50.3629 5.37333 50.7549 5.76533 51.0722 6.232V4.706H51.9262V12.028C51.9262 12.7 51.7629 13.2647 51.4362 13.722C51.1189 14.1887 50.6849 14.5387 50.1342 14.772C49.5929 15.0053 49.0002 15.122 48.3562 15.122C47.5256 15.122 46.8536 14.9727 46.3402 14.674C45.8269 14.3753 45.4069 13.974 45.0802 13.47L45.6682 13.008C45.9576 13.4653 46.3402 13.806 46.8162 14.03C47.3016 14.254 47.8149 14.366 48.3562 14.366C48.8322 14.366 49.2662 14.2773 49.6582 14.1C50.0596 13.932 50.3769 13.6753 50.6102 13.33C50.8529 12.9847 50.9742 12.5507 50.9742 12.028V10.586C50.6942 11.0433 50.3116 11.412 49.8262 11.692C49.3409 11.9627 48.8322 12.098 48.3002 12.098ZM48.5662 11.3C48.8556 11.3 49.1309 11.2487 49.3922 11.146C49.6629 11.0433 49.9102 10.908 50.1342 10.74C50.3582 10.5627 50.5449 10.3667 50.6942 10.152C50.8436 9.93733 50.9369 9.718 50.9742 9.494V7.24C50.8342 6.88533 50.6336 6.57267 50.3722 6.302C50.1109 6.022 49.8122 5.80733 49.4762 5.658C49.1496 5.49933 48.8089 5.42 48.4542 5.42C48.0436 5.42 47.6749 5.50867 47.3482 5.686C47.0309 5.854 46.7602 6.08267 46.5362 6.372C46.3216 6.652 46.1536 6.96933 46.0322 7.324C45.9109 7.67867 45.8502 8.03333 45.8502 8.388C45.8502 8.78 45.9202 9.15333 46.0602 9.508C46.2002 9.85333 46.3916 10.166 46.6342 10.446C46.8862 10.7167 47.1756 10.9267 47.5022 11.076C47.8382 11.2253 48.1929 11.3 48.5662 11.3ZM57.1365 12.14C56.6138 12.14 56.1285 12.042 55.6805 11.846C55.2418 11.6407 54.8592 11.3653 54.5325 11.02C54.2152 10.6653 53.9678 10.264 53.7905 9.816C53.6132 9.35867 53.5245 8.878 53.5245 8.374C53.5245 7.85133 53.6132 7.366 53.7905 6.918C53.9678 6.46067 54.2198 6.05933 54.5465 5.714C54.8732 5.35933 55.2558 5.084 55.6945 4.888C56.1425 4.68267 56.6278 4.58 57.1505 4.58C57.6732 4.58 58.1538 4.68267 58.5925 4.888C59.0312 5.084 59.4138 5.35933 59.7405 5.714C60.0672 6.05933 60.3192 6.46067 60.4965 6.918C60.6738 7.366 60.7625 7.85133 60.7625 8.374C60.7625 8.878 60.6738 9.35867 60.4965 9.816C60.3192 10.264 60.0672 10.6653 59.7405 11.02C59.4232 11.3653 59.0405 11.6407 58.5925 11.846C58.1538 12.042 57.6685 12.14 57.1365 12.14ZM54.4905 8.388C54.4905 8.92933 54.6072 9.424 54.8405 9.872C55.0832 10.3107 55.4052 10.6607 55.8065 10.922C56.2078 11.174 56.6512 11.3 57.1365 11.3C57.6218 11.3 58.0652 11.1693 58.4665 10.908C58.8678 10.6467 59.1898 10.292 59.4325 9.844C59.6752 9.38667 59.7965 8.892 59.7965 8.36C59.7965 7.81867 59.6752 7.324 59.4325 6.876C59.1898 6.428 58.8678 6.07333 58.4665 5.812C58.0652 5.55067 57.6218 5.42 57.1365 5.42C56.6512 5.42 56.2078 5.55533 55.8065 5.826C55.4145 6.09667 55.0972 6.456 54.8545 6.904C54.6118 7.34267 54.4905 7.83733 54.4905 8.388ZM62.2847 8.99V4.706H63.2367V8.822C63.2367 9.65267 63.3767 10.2733 63.6567 10.684C63.946 11.0947 64.3707 11.3 64.9307 11.3C65.304 11.3 65.6634 11.2207 66.0087 11.062C66.3634 10.894 66.676 10.6607 66.9467 10.362C67.2174 10.054 67.4227 9.69933 67.5627 9.298V4.706H68.5147V10.852C68.5147 10.9827 68.5427 11.0807 68.5987 11.146C68.6547 11.202 68.7387 11.2347 68.8507 11.244V12C68.7387 12.0093 68.65 12.014 68.5847 12.014C68.5194 12.0233 68.4587 12.028 68.4027 12.028C68.216 12.0093 68.0527 11.9347 67.9127 11.804C67.782 11.6733 67.712 11.5147 67.7027 11.328L67.6747 10.348C67.3574 10.908 66.9234 11.3467 66.3727 11.664C65.8314 11.9813 65.2434 12.14 64.6087 12.14C63.8434 12.14 63.2647 11.874 62.8727 11.342C62.4807 10.81 62.2847 10.026 62.2847 8.99ZM74.1672 11.65C74.0925 11.678 73.9759 11.7293 73.8172 11.804C73.6585 11.8787 73.4672 11.944 73.2432 12C73.0192 12.056 72.7765 12.084 72.5152 12.084C72.2445 12.084 71.9879 12.0327 71.7452 11.93C71.5119 11.8273 71.3252 11.6733 71.1852 11.468C71.0452 11.2533 70.9752 10.992 70.9752 10.684V5.462H69.9672V4.706H70.9752V2.242H71.9272V4.706H73.6072V5.462H71.9272V10.418C71.9459 10.6793 72.0392 10.8753 72.2072 11.006C72.3845 11.1367 72.5852 11.202 72.8092 11.202C73.0705 11.202 73.3085 11.16 73.5232 11.076C73.7379 10.9827 73.8685 10.9173 73.9152 10.88L74.1672 11.65Z" fill="#9B51E0"/>
</svg>
