<svg width="80" height="16" viewBox="0 0 80 16" fill="none" xmlns="http://www.w3.org/2000/svg">
<path d="M8.9585 6.36548L9.13428 6.86841H12.521L10.311 8.62817L9.91748 8.94067L10.0581 9.42407L10.8687 12.217L8.42041 10.5637L8.00049 10.2795L7.58057 10.5637L5.13135 12.217L5.94287 9.42407L6.08252 8.94067L5.68994 8.62817L3.47998 6.86841H6.8667L7.0415 6.36548L7.99951 3.61353L8.9585 6.36548Z" fill="white" stroke="white" stroke-width="1.5"/>
<path d="M24.9585 6.36548L25.1343 6.86841H28.521L26.311 8.62817L25.9175 8.94067L26.0581 9.42407L26.8687 12.217L24.4204 10.5637L24.0005 10.2795L23.5806 10.5637L21.1313 12.217L21.9429 9.42407L22.0825 8.94067L21.6899 8.62817L19.48 6.86841H22.8667L23.0415 6.36548L23.9995 3.61353L24.9585 6.36548Z" fill="white" stroke="white" stroke-width="1.5"/>
<path d="M40.9585 6.36548L41.1343 6.86841H44.521L42.311 8.62817L41.9175 8.94067L42.0581 9.42407L42.8687 12.217L40.4204 10.5637L40.0005 10.2795L39.5806 10.5637L37.1313 12.217L37.9429 9.42407L38.0825 8.94067L37.6899 8.62817L35.48 6.86841H38.8667L39.0415 6.36548L39.9995 3.61353L40.9585 6.36548Z" fill="white" stroke="white" stroke-width="1.5"/>
<path d="M56.9585 6.36548L57.1343 6.86841H60.521L58.311 8.62817L57.9175 8.94067L58.0581 9.42407L58.8687 12.217L56.4204 10.5637L56.0005 10.2795L55.5806 10.5637L53.1313 12.217L53.9429 9.42407L54.0825 8.94067L53.6899 8.62817L51.48 6.86841H54.8667L55.0415 6.36548L55.9995 3.61353L56.9585 6.36548Z" fill="white" stroke="white" stroke-width="1.5"/>
<path d="M72.9585 6.36548L73.1343 6.86841H76.521L74.311 8.62817L73.9175 8.94067L74.0581 9.42407L74.8687 12.217L72.4204 10.5637L72.0005 10.2795L71.5806 10.5637L69.1313 12.217L69.9429 9.42407L70.0825 8.94067L69.6899 8.62817L67.48 6.86841H70.8667L71.0415 6.36548L71.9995 3.61353L72.9585 6.36548Z" fill="white" stroke="white" stroke-width="1.5"/>
</svg>
